<?xml version="1.0" encoding="UTF-8" standalone="no"?>
<svg
   xmlns:dc="http://purl.org/dc/elements/1.1/"
   xmlns:cc="http://creativecommons.org/ns#"
   xmlns:rdf="http://www.w3.org/1999/02/22-rdf-syntax-ns#"
   xmlns:svg="http://www.w3.org/2000/svg"
   xmlns="http://www.w3.org/2000/svg"
   xmlns:sodipodi="http://sodipodi.sourceforge.net/DTD/sodipodi-0.dtd"
   xmlns:inkscape="http://www.inkscape.org/namespaces/inkscape"
   width="191.00877"
   height="20"
   viewBox="0 0 143.25658 15"
   version="1.2"
   id="svg4544"
   sodipodi:docname="myprovys-white.svg"
   inkscape:version="0.91 r13725"
   inkscape:export-filename="D:\git\myp-deploy\_tmp\Logo\myprovys-long.png"
   inkscape:export-xdpi="96"
   inkscape:export-ydpi="96">
  <metadata
     id="metadata4550">
    <rdf:RDF>
      <cc:Work
         rdf:about="">
        <dc:format>image/svg+xml</dc:format>
        <dc:type
           rdf:resource="http://purl.org/dc/dcmitype/StillImage" />
        <dc:title></dc:title>
      </cc:Work>
    </rdf:RDF>
  </metadata>
  <defs
     id="defs4548" />
  <sodipodi:namedview
     pagecolor="#ffffff"
     bordercolor="#666666"
     borderopacity="1"
     objecttolerance="10"
     gridtolerance="10"
     guidetolerance="10"
     inkscape:pageopacity="0"
     inkscape:pageshadow="2"
     inkscape:window-width="1920"
     inkscape:window-height="1017"
     id="namedview4546"
     showgrid="false"
     inkscape:zoom="2.3135474"
     inkscape:cx="231.83024"
     inkscape:cy="49.18245"
     inkscape:window-x="1912"
     inkscape:window-y="-8"
     inkscape:window-maximized="1"
     inkscape:current-layer="svg4544"
     units="px"
     inkscape:snap-page="true"
     inkscape:snap-object-midpoints="false"
     inkscape:snap-center="false"
     inkscape:snap-bbox="true"
     inkscape:bbox-nodes="true"
     inkscape:snap-bbox-edge-midpoints="true"
     fit-margin-top="0"
     fit-margin-left="0"
     fit-margin-right="0"
     fit-margin-bottom="0" />
  <g
     id="g1118"
     transform="matrix(0.16788847,0,0,0.16788848,34.699785,61.45565)"
     style="fill:#ffffff">
    <path
       id="path1079"
       d="m -89.612205,-277.6533 c -4.957455,-0.67161 -9.92126,-2.0781 -9.92126,-2.81118 0,-0.58543 3.507585,-14.29958 3.741024,-14.62685 0.07468,-0.10471 1.93655,0.2473 4.137477,0.78224 7.3645,1.78994 15.816088,0.42604 17.998368,-2.90455 0.751952,-1.14761 0.751249,-1.4405 -0.0062,-2.60817 -0.46931,-0.72345 -6.867865,-11.77521 -14.218997,-24.55946 l -13.365707,-23.24409 11.201993,-0.15419 c 9.006974,-0.12397 11.313378,-8.5e-4 11.770419,0.62837 0.312639,0.4304 4.225278,7.67721 8.69476,16.10401 l 8.126323,15.32145 2.432296,-4.61124 c 1.33776,-2.53618 3.096403,-5.75927 3.908087,-7.16242 0.811684,-1.40315 3.584625,-6.44173 6.162095,-11.19685 2.577469,-4.75512 4.879304,-8.64567 5.115197,-8.64567 0.235888,0 0.428888,8.30639 0.428888,18.45864 l 0,18.45864 -5.75483,9.74608 c -4.685721,7.93549 -6.555186,10.536 -10.062993,13.99806 -6.4415,6.35748 -12.1018,8.79621 -21.599502,9.30611 -2.650394,0.14229 -6.604725,0.0168 -8.787402,-0.27893 z"
       style="fill:#ffffff;fill-opacity:1;stroke-width:0.56692916"
       inkscape:connector-curvature="0" />
    <path
       id="path1057"
       d="m -206.68308,-322.69387 0,-25.24173 9.77953,0.15512 9.77953,0.15512 -0.006,1.84252 c -0.003,1.01338 0.0693,1.84252 0.16058,1.84252 0.0913,0 1.43153,-0.64127 2.97822,-1.42504 3.95359,-2.00343 11.41011,-3.66867 16.44836,-3.67335 6.99293,-0.006 13.02871,2.05938 17.12293,5.86069 l 1.555,1.44376 4.52919,-2.26694 c 16.48193,-8.24945 34.31926,-5.94486 39.96298,5.16324 2.23332,4.39566 2.57108,7.67625 2.57108,24.97278 l 0,16.41304 -9.92126,0 -9.92126,0 -0.0139,-13.46456 c -0.0146,-14.17823 -0.44345,-17.77303 -2.36429,-19.81808 -2.82282,-3.00537 -11.22561,-2.8825 -17.42634,0.25481 l -3.08969,1.56327 0.1464,15.73228 0.14641,15.73228 -10.24261,0 -10.24261,0 0,-15.05177 c 0,-16.44891 -0.19596,-17.59792 -3.26944,-19.1708 -4.03602,-2.06548 -10.494,-1.57829 -15.93157,1.20188 l -3.04352,1.55613 0.0836,15.73228 0.0836,15.73228 -9.93769,0 -9.93769,0 z"
       style="fill:#ffffff;fill-opacity:1;stroke-width:0.56692916"
       inkscape:connector-curvature="0" />
  </g>
  <path
     style="fill:#ffffff;fill-opacity:1;stroke-width:0.75590557"
     d="m 28.744658,-2.8151987e-8 0,5.760673428151988 0,5.7604266 1.737006,-0.02607 1.737252,-0.02582 0,-1.7387277 0,-1.7389742 3.331127,0.00565 c 3.043148,0.00511 3.395731,-0.010904 4.07605,-0.1864154 1.435532,-0.370354 2.334508,-1.0407932 2.88255,-2.1496781 0.960334,-1.943102 0.219434,-4.0850929 -1.758156,-5.083378 C 39.638518,0.0163628 39.478579,0.00273613 33.860748,0.00122514 Z M 32.218916,2.5598896 l 2.902963,0.028773 c 2.681959,0.026555 2.931455,0.043257 3.277514,0.2191234 0.534572,0.2716696 0.729815,0.5824803 0.734348,1.1684157 0.0044,0.5663516 -0.229454,0.9723148 -0.711969,1.2362922 -0.264527,0.1447194 -0.666518,0.1686574 -3.252429,0.1937928 l -2.950427,0.028774 0,-1.4374637 z"
     id="path1085"
     inkscape:connector-curvature="0" />
</svg>
